<svg width="128" height="43" viewBox="0 0 128 43" fill="none" xmlns="http://www.w3.org/2000/svg">
<g filter="url(#filter0_d_325_4)">
<path fill-rule="evenodd" clip-rule="evenodd" d="M4.00053 22.5827C3.98973 22.9472 4.14415 23.3008 4.43037 23.567C4.71659 23.8331 5.11162 23.9904 5.53 24.0049H5.59373C5.80497 24.0049 6.01412 23.9684 6.20899 23.8973C6.40386 23.8263 6.58056 23.7222 6.72882 23.5912C6.87708 23.4601 6.99393 23.3047 7.07257 23.1339C7.15122 22.9632 7.19009 22.7805 7.18692 22.5965V13.6329C7.18692 10.0252 9.6962 8.25611 12.7233 8.25611C15.83 8.25611 18.2995 10.0599 18.2995 13.6329V22.5827C18.2887 22.9472 18.4431 23.3008 18.7293 23.567C19.0155 23.8331 19.4105 23.9904 19.8289 24.0049H19.8767C20.088 24.0049 20.2971 23.9684 20.492 23.8973C20.6869 23.8263 20.8636 23.7222 21.0118 23.5912C21.1601 23.4601 21.2769 23.3047 21.3556 23.1339C21.4342 22.9632 21.4731 22.7805 21.4699 22.5965V13.7023C21.4699 8.67237 17.7657 5.68912 13.1056 5.68912C12.0015 5.67764 10.9064 5.86385 9.88823 6.2362C8.8701 6.60855 7.95065 7.1591 7.18692 7.85371V7.15993C7.18692 6.79193 7.01907 6.439 6.72028 6.17878C6.4215 5.91856 6.01627 5.77237 5.59373 5.77237C5.178 5.77226 4.77868 5.91368 4.48102 6.16644C4.18335 6.4192 4.01092 6.76329 4.00053 7.12525V22.5965V22.5827ZM35.2072 24.0743C41.1817 24.0743 45.6825 20.0157 45.6825 14.8817C45.6825 9.74773 41.1817 5.68912 35.2072 5.68912C33.8212 5.68912 32.4486 5.92689 31.1681 6.38886C29.8875 6.85083 28.7239 7.52795 27.7438 8.38157C26.7637 9.23518 25.9862 10.2486 25.4558 11.3639C24.9253 12.4791 24.6523 13.6745 24.6523 14.8817C24.6523 16.0889 24.9253 17.2843 25.4558 18.3995C25.9862 19.5148 26.7637 20.5282 27.7438 21.3818C28.7239 22.2354 29.8875 22.9126 31.1681 23.3745C32.4486 23.8365 33.8212 24.0743 35.2072 24.0743ZM35.2072 21.5073C31.1048 21.5073 27.9184 18.524 27.9184 14.8817C27.9184 11.2394 31.1048 8.25611 35.2072 8.25611C39.3097 8.25611 42.4563 11.2047 42.4563 14.8817C42.4563 18.5587 39.3097 21.5073 35.2072 21.5073ZM58.6312 24.0743C64.6057 24.0743 69.1065 20.0157 69.1065 14.8817C69.1065 9.74773 64.6057 5.68912 58.6312 5.68912C57.2451 5.68912 55.8726 5.92689 54.592 6.38886C53.3114 6.85083 52.1479 7.52795 51.1677 8.38157C50.1876 9.23518 49.4102 10.2486 48.8797 11.3639C48.3493 12.4791 48.0763 13.6745 48.0763 14.8817C48.0763 16.0889 48.3493 17.2843 48.8797 18.3995C49.4102 19.5148 50.1876 20.5282 51.1677 21.3818C52.1479 22.2354 53.3114 22.9126 54.592 23.3745C55.8726 23.8365 57.2451 24.0743 58.6312 24.0743ZM58.6312 21.5073C54.5287 21.5073 51.3423 18.524 51.3423 14.8817C51.3423 11.2394 54.5287 8.25611 58.6312 8.25611C62.7337 8.25611 65.8802 11.2047 65.8802 14.8817C65.8802 18.5587 62.7337 21.5073 58.6312 21.5073ZM75.4991 22.5827C75.4883 22.9472 75.6428 23.3008 75.929 23.567C76.2152 23.8331 76.6102 23.9904 77.0286 24.0049H77.0923C77.3036 24.0049 77.5127 23.9684 77.7076 23.8973C77.9025 23.8263 78.0792 23.7222 78.2274 23.5912C78.3757 23.4601 78.4925 23.3047 78.5712 23.1339C78.6498 22.9632 78.6887 22.7805 78.6855 22.5965V8.60299H83.266C83.459 8.60345 83.6502 8.57079 83.8287 8.50689C84.0072 8.44298 84.1696 8.34908 84.3064 8.23054C84.4432 8.112 84.5519 7.97115 84.6263 7.81602C84.7006 7.6609 84.7392 7.49454 84.7397 7.32644C84.7461 6.99272 84.6005 6.67037 84.3348 6.42986C84.0691 6.18934 83.7049 6.05024 83.3217 6.04295H70.8789C70.6859 6.04249 70.4947 6.07515 70.3161 6.13905C70.1376 6.20296 69.9753 6.29687 69.8385 6.4154C69.7016 6.53394 69.5929 6.6748 69.5186 6.82992C69.4442 6.98505 69.4057 7.15141 69.4052 7.3195C69.4113 7.65823 69.5686 7.98159 69.8436 8.22114C70.1187 8.46068 70.49 8.59763 70.8789 8.60299H75.4991V22.5827ZM87.002 22.5827C86.9912 22.9472 87.1456 23.3008 87.4319 23.567C87.7181 23.8331 88.1131 23.9904 88.5315 24.0049H88.5952C88.8065 24.0049 89.0156 23.9684 89.2105 23.8973C89.4053 23.8263 89.582 23.7222 89.7303 23.5912C89.8786 23.4601 89.9954 23.3047 90.0741 23.1339C90.1527 22.9632 90.1916 22.7805 90.1884 22.5965V8.60299H93.9324C96.1629 8.60299 97.5569 9.95587 97.5569 11.6209C97.5569 13.286 96.1231 14.6389 93.9722 14.6389H93.4943C93.2936 14.6389 93.0949 14.6734 92.9096 14.7403C92.7242 14.8073 92.5559 14.9055 92.4142 15.0292C92.2725 15.153 92.1602 15.2998 92.0838 15.4614C92.0074 15.623 91.9683 15.7962 91.9688 15.9709C91.9669 15.9778 91.9669 15.9849 91.9688 15.9917C91.9637 16.3466 92.105 16.6913 92.3671 16.963L98.7001 23.4846C98.8376 23.6476 99.0177 23.7797 99.2255 23.8702C99.4332 23.9607 99.6627 24.0068 99.8949 24.0049C100.199 24.0067 100.497 23.9328 100.754 23.792C101.011 23.6512 101.216 23.4493 101.346 23.2102C101.476 22.9711 101.524 22.7046 101.486 22.4423C101.448 22.1799 101.324 21.9325 101.13 21.7293L96.4298 16.9075C96.6502 16.8583 96.8638 16.7885 97.067 16.6994C98.3819 16.1404 99.4391 15.2081 100.064 14.0561C100.69 12.904 100.846 11.6008 100.508 10.361C100.169 9.12126 99.3561 8.01882 98.2022 7.23522C97.0484 6.45162 95.6225 6.03357 94.1594 6.04989H88.5833C88.3798 6.0448 88.1771 6.07469 87.9869 6.13785C87.7967 6.20101 87.6226 6.2962 87.4747 6.41797C87.3267 6.53975 87.2078 6.68572 87.1246 6.84755C87.0415 7.00938 86.9957 7.1839 86.9901 7.36113C86.9861 7.38645 86.9861 7.41212 86.9901 7.43745L87.002 22.5827ZM104.595 22.5827C104.584 22.9472 104.738 23.3008 105.025 23.567C105.311 23.8331 105.706 23.9904 106.124 24.0049H106.188C106.399 24.0049 106.608 23.9684 106.803 23.8973C106.998 23.8263 107.175 23.7222 107.323 23.5912C107.471 23.4601 107.588 23.3047 107.667 23.1339C107.746 22.9632 107.784 22.7805 107.781 22.5965V7.15993C107.781 6.79193 107.613 6.439 107.315 6.17878C107.016 5.91856 106.611 5.77237 106.188 5.77237C105.772 5.77226 105.373 5.91368 105.075 6.16644C104.778 6.4192 104.605 6.76329 104.595 7.12525C104.591 7.13655 104.591 7.14863 104.595 7.15993V22.5827ZM106.188 3.46903C106.714 3.46187 107.215 3.27684 107.587 2.9531C107.959 2.62937 108.171 2.19235 108.18 1.73458C108.18 1.27457 107.97 0.833408 107.596 0.508135C107.223 0.182863 106.716 0.000127083 106.188 0.000127083C105.929 -0.00262071 105.672 0.0392157 105.431 0.123236C105.191 0.207256 104.972 0.331806 104.787 0.489735C104.602 0.647665 104.454 0.835865 104.353 1.04354C104.252 1.25121 104.199 1.47426 104.197 1.69989C104.193 1.71119 104.193 1.72327 104.197 1.73458C104.197 2.19458 104.406 2.63574 104.78 2.96102C105.153 3.28629 105.66 3.46903 106.188 3.46903ZM111.334 19.7728C111.334 22.0276 114.202 24.0743 117.667 24.0743C121.292 24.0743 124 21.7154 124 18.975C124 15.7142 121.411 14.5001 118.902 13.841C116.552 13.1819 114.64 12.5575 114.64 10.719C114.627 10.0501 114.919 9.40398 115.452 8.9222C115.985 8.44043 116.716 8.16224 117.484 8.14857H117.707C118.434 8.1214 119.153 8.29903 119.755 8.65516C120.358 9.01128 120.813 9.52697 121.053 10.1258C121.117 10.4045 121.292 10.6546 121.547 10.8322C121.802 11.0097 122.12 11.1035 122.447 11.0971C122.634 11.098 122.82 11.0667 122.994 11.0049C123.167 10.9431 123.325 10.8521 123.459 10.7371C123.592 10.622 123.698 10.4852 123.77 10.3345C123.842 10.1838 123.88 10.0221 123.881 9.85874C123.881 7.49989 121.053 5.69606 117.707 5.69606C114.162 5.69606 111.573 7.88146 111.573 10.726C111.573 14.1602 114.361 15.0968 117.109 15.8946C119.22 16.519 120.814 17.3169 120.814 19.0513C120.814 20.3695 119.579 21.5836 117.667 21.5836C116.878 21.6052 116.103 21.3993 115.462 20.9978C114.821 20.5964 114.35 20.0219 114.122 19.3635C114.011 19.0843 113.789 18.8486 113.497 18.6984C113.204 18.5482 112.86 18.4931 112.526 18.5431C112.191 18.593 111.888 18.7447 111.67 18.9712C111.451 19.1976 111.332 19.4842 111.334 19.7798V19.7728ZM46.961 34.5295C55.0465 34.5295 60.0651 31.3728 60.9413 30.8178C61.1827 30.6726 61.3834 30.4817 61.5282 30.2594C61.673 30.0372 61.7583 29.7893 61.7778 29.5343C61.7825 29.3653 61.749 29.1971 61.6791 29.0394C61.6092 28.8817 61.5043 28.7375 61.3704 28.6151C61.2365 28.4926 61.0762 28.3944 60.8987 28.326C60.7212 28.2575 60.53 28.2202 60.3359 28.2161H60.304C59.9742 28.229 59.6558 28.3255 59.388 28.4937C55.7032 30.6198 51.3811 31.7536 46.961 31.7536C42.541 31.7536 38.2188 30.6198 34.5341 28.4937C34.2666 28.3249 33.948 28.2284 33.618 28.2161C33.2258 28.218 32.8503 28.3552 32.5741 28.5978C32.2978 28.8403 32.1433 29.1684 32.1443 29.51V29.5343C32.1668 29.7887 32.2534 30.0356 32.398 30.2574C32.5426 30.4793 32.7415 30.6706 32.9808 30.8178C33.857 31.3728 38.9154 34.5295 46.961 34.5295Z" fill="white"/>
</g>
<defs>
<filter id="filter0_d_325_4" x="0" y="0" width="128" height="42.5295" filterUnits="userSpaceOnUse" color-interpolation-filters="sRGB">
<feFlood flood-opacity="0" result="BackgroundImageFix"/>
<feColorMatrix in="SourceAlpha" type="matrix" values="0 0 0 0 0 0 0 0 0 0 0 0 0 0 0 0 0 0 127 0" result="hardAlpha"/>
<feOffset dy="4"/>
<feGaussianBlur stdDeviation="2"/>
<feComposite in2="hardAlpha" operator="out"/>
<feColorMatrix type="matrix" values="0 0 0 0 0 0 0 0 0 0 0 0 0 0 0 0 0 0 0.25 0"/>
<feBlend mode="normal" in2="BackgroundImageFix" result="effect1_dropShadow_325_4"/>
<feBlend mode="normal" in="SourceGraphic" in2="effect1_dropShadow_325_4" result="shape"/>
</filter>
</defs>
</svg>
